<svg xmlns="http://www.w3.org/2000/svg" width="100" height="100" viewBox="0 0 100 100" fill="none"><path d="M36.7465 64.2882C16.9276 64.2882 0 67.3497 0 79.5863C0 91.8325 16.8199 94.9994 36.7465 94.9994C56.5655 94.9994 73.4931 91.9379 73.4931 79.7013C73.4931 67.4551 56.6731 64.2882 36.7465 64.2882" fill="#877BFB"></path><path opacity="0.4" d="M36.7467 52.624C50.2447 52.624 61.0617 42.0307 61.0617 28.812C61.0617 15.5932 50.2447 5 36.7467 5C23.2535 5 12.4316 15.5932 12.4316 28.812C12.4316 42.0307 23.2535 52.624 36.7467 52.624" fill="#877BFB"></path><path opacity="0.4" d="M70.8672 29.2436C70.8672 35.9751 68.8027 42.2563 65.1823 47.4739C64.8056 48.0105 65.1383 48.734 65.7939 48.8489C66.7038 48.9975 67.6383 49.0885 68.5923 49.1077C78.0835 49.352 86.6011 43.3679 88.9543 34.3557C92.4426 20.9837 82.2077 8.97705 69.1696 8.97705C67.7557 8.97705 66.4005 9.12079 65.0796 9.3843C64.8986 9.42263 64.7029 9.50887 64.605 9.66218C64.4778 9.85862 64.5708 10.1126 64.698 10.2802C68.6168 15.6607 70.8672 22.2102 70.8672 29.2436" fill="#877BFB"></path><path d="M98.8955 65.8461C97.1587 62.2192 92.966 59.7326 86.5863 58.5109C83.5775 57.7922 75.4268 56.7717 67.8486 56.9154C67.736 56.9298 67.6724 57.0065 67.6627 57.0544C67.648 57.131 67.6822 57.246 67.829 57.3275C71.3319 59.0235 84.8691 66.4019 83.1666 81.9635C83.0932 82.6439 83.646 83.2188 84.3358 83.123C87.6675 82.6583 96.239 80.852 98.8955 75.2368C100.368 72.2663 100.368 68.8166 98.8955 65.8461" fill="#877BFB"></path></svg>