<svg xmlns="http://www.w3.org/2000/svg" width="100" height="100" viewBox="0 0 100 100" fill="none"><path d="M80.8341 61.896C77.4756 61.1736 74.8187 62.7328 72.4662 64.0946C70.0569 65.498 65.4757 69.2143 62.8498 68.2631C49.4054 62.7277 36.7607 50.9602 31.2869 37.4619C30.3222 34.7799 34.0212 30.1696 35.4142 27.7319C36.7658 25.3721 38.2929 22.6901 37.5964 19.3065C36.967 16.2659 28.8261 5.90694 25.9474 3.07422C24.0488 1.20306 22.1039 0.173928 20.1074 0.00760326C12.601 -0.314651 4.21758 9.70122 2.74726 12.0973C-0.936275 17.2066 -0.915639 24.0052 2.80917 32.2486C11.7859 54.3906 45.7373 87.8063 67.9624 97.1205C72.0638 99.0384 75.8144 100 79.1832 100C82.4799 100 85.4153 99.08 87.9381 97.2556C89.8418 96.1589 100.268 87.3593 99.9947 79.6512C99.8296 77.6865 98.803 75.7218 96.9561 73.8194C94.1444 70.914 83.8522 62.5301 80.8341 61.896" fill="#877BFB"></path></svg>