<svg xmlns="http://www.w3.org/2000/svg" width="100" height="100" viewBox="0 0 100 100" fill="none"><path fill-rule="evenodd" clip-rule="evenodd" d="M20.8141 40.7264C19.2842 38.4316 19.9043 35.3312 22.1991 33.8013C24.4939 32.2714 27.5944 32.8915 29.1242 35.1863C34.9022 43.8533 41.7199 47.9439 49.938 47.9439C58.1561 47.9439 64.9738 43.8533 70.7518 35.1863C72.2817 32.8915 75.3821 32.2714 77.6769 33.8013C79.9717 35.3312 80.5918 38.4316 79.0619 40.7264C71.5232 52.0346 61.695 57.9315 49.938 57.9315C38.181 57.9315 28.3528 52.0346 20.8141 40.7264Z" fill="#877BFB"></path><path opacity="0.3" fill-rule="evenodd" clip-rule="evenodd" d="M7 3C3.13401 3 0 6.134 0 9.99999V70.9066C0 74.7726 3.13401 77.9066 7 77.9066H80.0249L98.2929 96.1746C98.9229 96.8046 100 96.3584 100 95.4675V62.9253L99.8755 62.9742V10C99.8755 6.13401 96.7415 3 92.8755 3H7Z" fill="#877BFB"></path></svg>