<svg xmlns="http://www.w3.org/2000/svg" width="100" height="100" viewBox="0 0 100 100" fill="none"><path opacity="0.4" fill-rule="evenodd" clip-rule="evenodd" d="M37.2215 12.3964C37.2215 10.5199 35.6715 9 33.7624 9H33.7579L26.3533 9.00446C16.3942 9.01337 8.28967 16.9696 8.28967 26.74V35.1909C8.28967 37.063 9.83967 38.5874 11.7488 38.5874C13.6579 38.5874 15.2124 37.063 15.2124 35.1909V26.74C15.2124 20.7093 20.2124 15.8018 26.3579 15.7929L33.7624 15.7884C35.676 15.7884 37.2215 14.2685 37.2215 12.3964ZM73.6073 9.00113H66.3664C64.4573 9.00113 62.9073 10.5211 62.9073 12.3976C62.9073 14.2696 64.4573 15.7851 66.3664 15.7851H73.6073C79.7755 15.7851 84.7937 20.7059 84.7937 26.7545V35.1921C84.7937 37.0641 86.3437 38.5885 88.2528 38.5885C90.1664 38.5885 91.7118 37.0641 91.7118 35.1921V26.7545C91.7118 16.9618 83.5937 9.00113 73.6073 9.00113ZM37.448 26.0122H62.5571C65.3071 26.0122 67.948 27.0953 69.8707 29.0253C71.8071 30.9731 72.8798 33.5895 72.8753 36.3129V41.9737C72.8525 42.6378 72.3116 43.1771 71.6344 43.195H28.3616C27.6889 43.1727 27.148 42.6333 27.1344 41.9737V36.3129C27.0844 30.6745 31.7025 26.0701 37.448 26.0122Z" fill="#877BFB"></path><path d="M96.5409 50.0966H3.46364C1.55455 50.0966 0 51.6165 0 53.493C0 55.3651 1.55455 56.8805 3.46364 56.8805H8.28636V73.0783C8.28636 82.8486 16.3955 90.8048 26.3545 90.8138L33.7591 90.8182V90.8182C35.6727 90.8182 37.2182 89.2983 37.2227 87.4218C37.2227 85.5497 35.6727 84.0298 33.7636 84.0298L26.3636 84.0253C20.2136 84.0164 15.2091 79.109 15.2091 73.0783V56.8805H27.1318V61.3868C27.0864 67.0253 31.7 71.6341 37.4455 71.6876H62.5545C68.3045 71.6341 72.9182 67.0253 72.8727 61.3868V56.8805H84.7955V73.0604C84.7955 79.1134 79.7773 84.0298 73.6091 84.0298H66.3682C64.4545 84.0298 62.9045 85.5497 62.9045 87.4218C62.9045 89.2983 64.4545 90.8182 66.3682 90.8182H73.6091C83.5909 90.8182 91.7136 82.8575 91.7136 73.0604V56.8805H96.5409C98.45 56.8805 100 55.3651 100 53.493C100 51.6165 98.45 50.0966 96.5409 50.0966" fill="#877BFB"></path></svg>