<svg xmlns="http://www.w3.org/2000/svg" width="100" height="100" viewBox="0 0 100 100" fill="none"><path opacity="0.4" fill-rule="evenodd" clip-rule="evenodd" d="M65.0002 100C78.8073 100 90.0002 88.8071 90.0002 75C90.0002 61.1929 78.8073 50 65.0002 50C51.1931 50 40.0002 61.1929 40.0002 75C40.0002 88.8071 51.1931 100 65.0002 100Z" fill="#877BFB"></path><path opacity="0.4" fill-rule="evenodd" clip-rule="evenodd" d="M35.0002 100C48.8073 100 60.0002 88.8071 60.0002 75C60.0002 61.1929 48.8073 50 35.0002 50C21.1931 50 10.0002 61.1929 10.0002 75C10.0002 88.8071 21.1931 100 35.0002 100Z" fill="#877BFB"></path><path opacity="0.4" fill-rule="evenodd" clip-rule="evenodd" d="M25 70C38.8071 70 49.9999 58.8071 49.9999 45C49.9999 31.1929 38.8071 20 25 20C11.1929 20 0 31.1929 0 45C0 58.8071 11.1929 70 25 70Z" fill="#877BFB"></path><path opacity="0.4" fill-rule="evenodd" clip-rule="evenodd" d="M75 70C88.8071 70 100 58.8071 100 45C100 31.1929 88.8071 20 75 20C61.1929 20 50 31.1929 50 45C50 58.8071 61.1929 70 75 70Z" fill="#877BFB"></path><path opacity="0.4" fill-rule="evenodd" clip-rule="evenodd" d="M50.0002 49.9999C63.8073 49.9999 75.0002 38.8071 75.0002 25C75.0002 11.1929 63.8073 0 50.0002 0C36.1931 0 25.0002 11.1929 25.0002 25C25.0002 38.8071 36.1931 49.9999 50.0002 49.9999Z" fill="#877BFB"></path><path d="M67.1524 50.1648L61.2574 55.9048L62.6524 64.0198C62.8924 65.4248 62.3274 66.8098 61.1724 67.6398C60.0274 68.4798 58.5324 68.5848 57.2724 67.9148L49.9974 64.0898L42.7074 67.9198C42.1674 68.2048 41.5774 68.3548 40.9924 68.3548C40.2274 68.3548 39.4724 68.1148 38.8224 67.6448C37.6724 66.8098 37.1074 65.4248 37.3474 64.0198L38.7374 55.9048L32.8424 50.1648C31.8224 49.1748 31.4674 47.7198 31.9074 46.3648C32.3524 45.0148 33.5024 44.0548 34.9074 43.8548L43.0374 42.6698L46.6824 35.2848C47.3174 34.0148 48.5874 33.2248 49.9974 33.2248H50.0074C51.4224 33.2298 52.6924 34.0198 53.3174 35.2898L56.9624 42.6698L65.1074 43.8598C66.4974 44.0548 67.6474 45.0148 68.0874 46.3648C68.5324 47.7198 68.1774 49.1748 67.1524 50.1648" fill="#877BFB"></path></svg>