<svg xmlns="http://www.w3.org/2000/svg" width="100" height="100" viewBox="0 0 100 100" fill="none"><path fill-rule="evenodd" clip-rule="evenodd" d="M74.695 5C81.4 5 87.85 7.65 92.595 12.405C97.345 17.15 100 23.55 100 30.25V69.75C100 83.7 88.65 95 74.695 95H25.3C11.345 95 0 83.7 0 69.75V30.25C0 16.3 11.295 5 25.3 5H74.695ZM82.6497 37.6998L83.0497 37.2998C84.2447 35.8498 84.2447 33.7498 82.9947 32.2998C82.2997 31.5548 81.3447 31.0998 80.3497 30.9998C79.2997 30.9448 78.2997 31.2998 77.5447 31.9998L54.9997 49.9998C52.0997 52.4048 47.9447 52.4048 44.9997 49.9998L22.4997 31.9998C20.9447 30.8498 18.7947 30.9998 17.4997 32.3498C16.1497 33.6998 15.9997 35.8498 17.1447 37.3498L17.7997 37.9998L40.5497 55.7498C43.3497 57.9498 46.7447 59.1498 50.2997 59.1498C53.8447 59.1498 57.2997 57.9498 60.0947 55.7498L82.6497 37.6998Z" fill="#877BFB"></path></svg>